<svg xmlns="http://www.w3.org/2000/svg" xmlns:xlink="http://www.w3.org/1999/xlink" width="500" zoomAndPan="magnify" viewBox="0 0 375 374.999991" height="500" preserveAspectRatio="xMidYMid meet" version="1.0"><defs><g/></defs><rect x="-37.5" width="450" fill="#ffffff" y="-37.499999" height="449.999989" fill-opacity="1"/><rect x="-37.5" width="450" fill="#ffffff" y="-37.499999" height="449.999989" fill-opacity="1"/><g fill="#000000" fill-opacity="1"><g transform="translate(56.688212, 207.808213)"><g><path d="M 57.390625 0 L 46.453125 -38.34375 L 35.53125 0 L 18.21875 0 L -1.25 -68.328125 L 16.0625 -68.328125 L 27.75 -21.453125 L 28.15625 -21.453125 L 40.578125 -68.328125 L 52.34375 -68.328125 L 64.765625 -21.453125 L 65.171875 -21.453125 L 76.84375 -68.328125 L 94.078125 -68.328125 L 74.609375 0 Z M 57.390625 0 "/></g></g></g><g fill="#000000" fill-opacity="1"><g transform="translate(143.05267, 207.808213)"><g><path d="M 4.96875 0 L 4.96875 -71.21875 L 19.625 -71.21875 L 19.625 -38.015625 L 19.796875 -38.015625 C 23.597656 -41.816406 27.65625 -43.71875 31.96875 -43.71875 C 34.0625 -43.71875 36.144531 -43.441406 38.21875 -42.890625 C 40.289062 -42.335938 42.273438 -41.484375 44.171875 -40.328125 C 46.078125 -39.171875 47.625 -37.53125 48.8125 -35.40625 C 50 -33.28125 50.59375 -30.804688 50.59375 -27.984375 L 50.59375 0 L 35.9375 0 L 35.9375 -24.015625 C 35.9375 -26.222656 35.234375 -28.15625 33.828125 -29.8125 C 32.421875 -31.46875 30.585938 -32.296875 28.328125 -32.296875 C 26.117188 -32.296875 24.113281 -31.4375 22.3125 -29.71875 C 20.519531 -28.007812 19.625 -26.109375 19.625 -24.015625 L 19.625 0 Z M 4.96875 0 "/></g></g></g><g fill="#000000" fill-opacity="1"><g transform="translate(191.327005, 207.808213)"><g><path d="M 6.375 -66.15625 C 8.082031 -67.875 10.125 -68.734375 12.5 -68.734375 C 14.875 -68.734375 16.914062 -67.875 18.625 -66.15625 C 20.34375 -64.445312 21.203125 -62.40625 21.203125 -60.03125 C 21.203125 -57.664062 20.34375 -55.625 18.625 -53.90625 C 16.914062 -52.195312 14.875 -51.34375 12.5 -51.34375 C 10.125 -51.34375 8.082031 -52.195312 6.375 -53.90625 C 4.664062 -55.625 3.8125 -57.664062 3.8125 -60.03125 C 3.8125 -62.40625 4.664062 -64.445312 6.375 -66.15625 Z M 4.96875 -42.484375 L 4.96875 0 L 19.625 0 L 19.625 -42.484375 Z M 4.96875 -42.484375 "/></g></g></g><g fill="#000000" fill-opacity="1"><g transform="translate(209.874489, 207.808213)"><g><path d="M 23.4375 -43.71875 C 25.863281 -43.71875 28.265625 -43.441406 30.640625 -42.890625 C 33.015625 -42.335938 34.78125 -41.785156 35.9375 -41.234375 L 37.6875 -40.40625 L 32.875 -30.8125 C 29.5625 -32.570312 26.414062 -33.453125 23.4375 -33.453125 C 21.78125 -33.453125 20.601562 -33.269531 19.90625 -32.90625 C 19.21875 -32.550781 18.875 -31.878906 18.875 -30.890625 C 18.875 -30.671875 18.898438 -30.445312 18.953125 -30.21875 C 19.015625 -30 19.128906 -29.789062 19.296875 -29.59375 C 19.460938 -29.40625 19.613281 -29.242188 19.75 -29.109375 C 19.882812 -28.972656 20.117188 -28.820312 20.453125 -28.65625 C 20.785156 -28.488281 21.046875 -28.363281 21.234375 -28.28125 C 21.429688 -28.195312 21.75 -28.070312 22.1875 -27.90625 C 22.632812 -27.738281 22.96875 -27.613281 23.1875 -27.53125 C 23.40625 -27.445312 23.773438 -27.320312 24.296875 -27.15625 C 24.828125 -27 25.226562 -26.890625 25.5 -26.828125 C 27.21875 -26.335938 28.710938 -25.785156 29.984375 -25.171875 C 31.253906 -24.566406 32.59375 -23.738281 34 -22.6875 C 35.40625 -21.644531 36.492188 -20.320312 37.265625 -18.71875 C 38.035156 -17.113281 38.421875 -15.289062 38.421875 -13.25 C 38.421875 -3.582031 31.710938 1.25 18.296875 1.25 C 15.265625 1.25 12.378906 0.78125 9.640625 -0.15625 C 6.910156 -1.101562 4.941406 -2.046875 3.734375 -2.984375 L 1.90625 -4.46875 L 7.875 -14.5 C 8.3125 -14.101562 8.890625 -13.644531 9.609375 -13.125 C 10.328125 -12.601562 11.625 -11.882812 13.5 -10.96875 C 15.375 -10.0625 17.003906 -9.609375 18.390625 -9.609375 C 21.421875 -9.609375 22.9375 -10.628906 22.9375 -12.671875 C 22.9375 -13.609375 22.550781 -14.335938 21.78125 -14.859375 C 21.007812 -15.390625 19.695312 -15.984375 17.84375 -16.640625 C 16 -17.304688 14.550781 -17.914062 13.5 -18.46875 C 10.851562 -19.84375 8.753906 -21.398438 7.203125 -23.140625 C 5.660156 -24.878906 4.890625 -27.1875 4.890625 -30.0625 C 4.890625 -34.363281 6.554688 -37.710938 9.890625 -40.109375 C 13.234375 -42.515625 17.75 -43.71875 23.4375 -43.71875 Z M 23.4375 -43.71875 "/></g></g></g><g fill="#000000" fill-opacity="1"><g transform="translate(244.15484, 207.808213)"><g><path d="M 48.6875 -37.21875 C 52.664062 -32.882812 54.65625 -27.570312 54.65625 -21.28125 C 54.65625 -14.988281 52.664062 -9.660156 48.6875 -5.296875 C 44.71875 -0.929688 39.671875 1.25 33.546875 1.25 C 27.910156 1.25 23.269531 -0.519531 19.625 -4.0625 L 19.625 21.53125 L 4.96875 21.53125 L 4.96875 -42.484375 L 19.46875 -42.484375 L 19.46875 -37.6875 L 19.625 -37.6875 C 23.269531 -41.707031 27.910156 -43.71875 33.546875 -43.71875 C 39.671875 -43.71875 44.71875 -41.550781 48.6875 -37.21875 Z M 36.234375 -14.078125 C 38.140625 -15.953125 39.09375 -18.351562 39.09375 -21.28125 C 39.09375 -24.207031 38.179688 -26.59375 36.359375 -28.4375 C 34.535156 -30.289062 32.132812 -31.21875 29.15625 -31.21875 C 26.28125 -31.21875 23.914062 -30.28125 22.0625 -28.40625 C 20.21875 -26.53125 19.296875 -24.15625 19.296875 -21.28125 C 19.296875 -18.351562 20.25 -15.953125 22.15625 -14.078125 C 24.0625 -12.203125 26.394531 -11.265625 29.15625 -11.265625 C 31.96875 -11.265625 34.328125 -12.203125 36.234375 -14.078125 Z M 36.234375 -14.078125 "/></g></g></g><g fill="#000000" fill-opacity="1"><g transform="translate(294.25088, 207.808213)"><g><path d="M 4.96875 0 L 4.96875 -42.484375 L 19.625 -42.484375 L 19.625 -36.359375 L 19.796875 -36.359375 C 19.898438 -36.578125 20.078125 -36.851562 20.328125 -37.1875 C 20.578125 -37.519531 21.113281 -38.097656 21.9375 -38.921875 C 22.769531 -39.753906 23.65625 -40.5 24.59375 -41.15625 C 25.53125 -41.820312 26.742188 -42.414062 28.234375 -42.9375 C 29.722656 -43.457031 31.242188 -43.71875 32.796875 -43.71875 C 34.398438 -43.71875 35.972656 -43.5 37.515625 -43.0625 C 39.054688 -42.625 40.1875 -42.179688 40.90625 -41.734375 L 42.0625 -41.078125 L 35.9375 -28.65625 C 34.113281 -30.195312 31.578125 -30.96875 28.328125 -30.96875 C 26.554688 -30.96875 25.035156 -30.582031 23.765625 -29.8125 C 22.492188 -29.039062 21.597656 -28.101562 21.078125 -27 C 20.554688 -25.894531 20.179688 -24.953125 19.953125 -24.171875 C 19.734375 -23.398438 19.625 -22.796875 19.625 -22.359375 L 19.625 0 Z M 4.96875 0 "/></g></g></g><g fill="#000000" fill-opacity="1"><g transform="translate(156.709666, 229.771142)"><g><path d="M 4.578125 0.125 C 4.015625 0.125 3.488281 0.0195312 3 -0.1875 C 2.519531 -0.40625 2.101562 -0.695312 1.75 -1.0625 C 1.394531 -1.425781 1.113281 -1.859375 0.90625 -2.359375 C 0.695312 -2.859375 0.59375 -3.394531 0.59375 -3.96875 C 0.59375 -4.5625 0.695312 -5.113281 0.90625 -5.625 C 1.125 -6.132812 1.414062 -6.578125 1.78125 -6.953125 C 2.144531 -7.328125 2.570312 -7.617188 3.0625 -7.828125 C 3.550781 -8.046875 4.070312 -8.15625 4.625 -8.15625 C 5.21875 -8.15625 5.773438 -8.03125 6.296875 -7.78125 C 6.816406 -7.53125 7.265625 -7.1875 7.640625 -6.75 L 7.015625 -6.21875 C 6.703125 -6.570312 6.335938 -6.84375 5.921875 -7.03125 C 5.515625 -7.226562 5.070312 -7.328125 4.59375 -7.328125 C 4.144531 -7.328125 3.734375 -7.242188 3.359375 -7.078125 C 2.984375 -6.921875 2.65625 -6.691406 2.375 -6.390625 C 2.101562 -6.097656 1.890625 -5.75 1.734375 -5.34375 C 1.578125 -4.945312 1.5 -4.507812 1.5 -4.03125 C 1.5 -3.550781 1.578125 -3.109375 1.734375 -2.703125 C 1.890625 -2.296875 2.109375 -1.945312 2.390625 -1.65625 C 2.671875 -1.363281 3 -1.128906 3.375 -0.953125 C 3.757812 -0.785156 4.179688 -0.703125 4.640625 -0.703125 C 5.148438 -0.703125 5.609375 -0.800781 6.015625 -1 C 6.421875 -1.207031 6.765625 -1.476562 7.046875 -1.8125 L 7.640625 -1.296875 C 7.265625 -0.859375 6.816406 -0.507812 6.296875 -0.25 C 5.773438 0 5.203125 0.125 4.578125 0.125 Z M 4.578125 0.125 "/></g></g></g><g fill="#000000" fill-opacity="1"><g transform="translate(168.493814, 229.771142)"><g><path d="M 1.078125 -8.046875 L 1.921875 -8.046875 L 1.921875 -4.4375 L 6.234375 -4.4375 L 6.234375 -8.046875 L 7.078125 -8.046875 L 7.078125 0 L 6.234375 0 L 6.234375 -3.65625 L 1.921875 -3.65625 L 1.921875 0 L 1.078125 0 Z M 1.078125 -8.046875 "/></g></g></g><g fill="#000000" fill-opacity="1"><g transform="translate(180.253964, 229.771142)"><g><path d="M 3.421875 -8.28125 L 3.65625 -8.28125 L 6.71875 0 L 5.796875 0 L 5.046875 -2.109375 L 1.984375 -2.109375 L 1.234375 0 L 0.359375 0 Z M 4.765625 -2.890625 L 3.515625 -6.375 L 2.265625 -2.890625 Z M 4.765625 -2.890625 "/></g></g></g><g fill="#000000" fill-opacity="1"><g transform="translate(190.934113, 229.771142)"><g><path d="M 3 -7.265625 L 0.359375 -7.265625 L 0.359375 -8.046875 L 6.484375 -8.046875 L 6.484375 -7.265625 L 3.84375 -7.265625 L 3.84375 0 L 3 0 Z M 3 -7.265625 "/></g></g></g><g fill="#000000" fill-opacity="1"><g transform="translate(201.374266, 229.771142)"><g><path d="M 0.484375 -3.546875 L 3.125 -3.546875 L 3.125 -2.703125 L 0.484375 -2.703125 Z M 0.484375 -3.546875 "/></g></g></g><g fill="#000000" fill-opacity="1"><g transform="translate(208.574402, 229.771142)"><g><path d="M 3.421875 -8.28125 L 3.65625 -8.28125 L 6.71875 0 L 5.796875 0 L 5.046875 -2.109375 L 1.984375 -2.109375 L 1.234375 0 L 0.359375 0 Z M 4.765625 -2.890625 L 3.515625 -6.375 L 2.265625 -2.890625 Z M 4.765625 -2.890625 "/></g></g></g><g fill="#000000" fill-opacity="1"><g transform="translate(219.254548, 229.771142)"><g><path d="M 1.078125 -8.046875 L 3 -8.046875 C 3.394531 -8.046875 3.765625 -7.984375 4.109375 -7.859375 C 4.453125 -7.742188 4.742188 -7.578125 4.984375 -7.359375 C 5.234375 -7.140625 5.425781 -6.878906 5.5625 -6.578125 C 5.695312 -6.285156 5.765625 -5.960938 5.765625 -5.609375 C 5.765625 -5.265625 5.695312 -4.941406 5.5625 -4.640625 C 5.425781 -4.347656 5.234375 -4.09375 4.984375 -3.875 C 4.742188 -3.65625 4.453125 -3.484375 4.109375 -3.359375 C 3.765625 -3.242188 3.394531 -3.1875 3 -3.1875 L 1.921875 -3.1875 L 1.921875 0 L 1.078125 0 Z M 3 -3.96875 C 3.570312 -3.96875 4.035156 -4.117188 4.390625 -4.421875 C 4.742188 -4.722656 4.921875 -5.125 4.921875 -5.625 C 4.921875 -6.125 4.742188 -6.519531 4.390625 -6.8125 C 4.035156 -7.113281 3.570312 -7.265625 3 -7.265625 L 1.921875 -7.265625 L 1.921875 -3.96875 Z M 3 -3.96875 "/></g></g></g><g fill="#000000" fill-opacity="1"><g transform="translate(229.1547, 229.771142)"><g><path d="M 1.078125 -8.046875 L 3 -8.046875 C 3.394531 -8.046875 3.765625 -7.984375 4.109375 -7.859375 C 4.453125 -7.742188 4.742188 -7.578125 4.984375 -7.359375 C 5.234375 -7.140625 5.425781 -6.878906 5.5625 -6.578125 C 5.695312 -6.285156 5.765625 -5.960938 5.765625 -5.609375 C 5.765625 -5.265625 5.695312 -4.941406 5.5625 -4.640625 C 5.425781 -4.347656 5.234375 -4.09375 4.984375 -3.875 C 4.742188 -3.65625 4.453125 -3.484375 4.109375 -3.359375 C 3.765625 -3.242188 3.394531 -3.1875 3 -3.1875 L 1.921875 -3.1875 L 1.921875 0 L 1.078125 0 Z M 3 -3.96875 C 3.570312 -3.96875 4.035156 -4.117188 4.390625 -4.421875 C 4.742188 -4.722656 4.921875 -5.125 4.921875 -5.625 C 4.921875 -6.125 4.742188 -6.519531 4.390625 -6.8125 C 4.035156 -7.113281 3.570312 -7.265625 3 -7.265625 L 1.921875 -7.265625 L 1.921875 -3.96875 Z M 3 -3.96875 "/></g></g></g></svg>